<?xml version="1.0" encoding="utf-8"?>
<!-- Generator: Adobe Illustrator 24.0.2, SVG Export Plug-In . SVG Version: 6.00 Build 0)  -->
<svg xmlns="http://www.w3.org/2000/svg" xmlns:xlink="http://www.w3.org/1999/xlink" version="1.1" x="0px" y="0px" viewBox="0 0 1345.86 234.45" style="enable-background:new 0 0 1345.86 234.45;" xml:space="preserve">
<style type="text/css">
	.st0{fill:url(#SVGID_1_);}
	.st1{fill:url(#SVGID_2_);}
	.st2{fill:url(#SVGID_3_);}
	.st3{fill:url(#SVGID_4_);}
	.st4{fill:url(#SVGID_5_);}
	.st5{fill:url(#SVGID_6_);}
	.st6{fill:url(#SVGID_7_);}
	.st7{fill:#C13B2E;}
	.st8{fill:url(#SVGID_8_);}
	.st9{fill:url(#SVGID_9_);}
	.st10{fill:#9F2F22;}
	.st11{fill:#17445C;}
	.st12{fill:#808285;}
</style>
<g id="Layer_1">
	<g>
		<g>
			
				<linearGradient id="SVGID_1_" gradientUnits="userSpaceOnUse" x1="10155.3525" y1="4453.4575" x2="10181.8623" y2="4549.9048" gradientTransform="matrix(-0.8085 0.5885 -0.5885 -0.8085 10979.4229 -2154.0405)">
				<stop offset="0" style="stop-color:#C13B2E"/>
				<stop offset="0.1351" style="stop-color:#BD392C"/>
				<stop offset="0.2752" style="stop-color:#B53729"/>
				<stop offset="0.4175" style="stop-color:#A83225"/>
				<stop offset="0.5615" style="stop-color:#962C1E"/>
				<stop offset="0.7068" style="stop-color:#7E2214"/>
				<stop offset="0.8531" style="stop-color:#621302"/>
				<stop offset="0.9977" style="stop-color:#410000"/>
				<stop offset="1" style="stop-color:#410000"/>
			</linearGradient>
			<polygon class="st0" points="131.62,224.17 155.29,206.96 82.26,153.78 58.56,171.1    "/>
			
				<linearGradient id="SVGID_2_" gradientUnits="userSpaceOnUse" x1="3397.5208" y1="5891.75" x2="3424.0295" y2="5988.1943" gradientTransform="matrix(0.3114 0.9503 -0.9503 0.3114 4768.5781 -4950.3213)">
				<stop offset="0" style="stop-color:#C13B2E"/>
				<stop offset="0.1351" style="stop-color:#BD392C"/>
				<stop offset="0.2752" style="stop-color:#B53729"/>
				<stop offset="0.4175" style="stop-color:#A83225"/>
				<stop offset="0.5615" style="stop-color:#962C1E"/>
				<stop offset="0.7068" style="stop-color:#7E2214"/>
				<stop offset="0.8531" style="stop-color:#621302"/>
				<stop offset="0.9977" style="stop-color:#410000"/>
				<stop offset="1" style="stop-color:#410000"/>
			</linearGradient>
			<polygon class="st1" points="224.91,129.32 215.8,101.51 142.74,154.65 151.94,182.52    "/>
			<g>
				
					<linearGradient id="SVGID_3_" gradientUnits="userSpaceOnUse" x1="10852.3037" y1="-2386.2803" x2="10878.8115" y2="-2289.8403" gradientTransform="matrix(-0.8074 -0.59 0.59 -0.8074 10219.2607 4678.2495)">
					<stop offset="0" style="stop-color:#007795"/>
					<stop offset="1" style="stop-color:#000016"/>
				</linearGradient>
				<polygon class="st2" points="41.91,187.27 65.55,204.53 93.85,118.75 70.12,101.47     "/>
				
					<linearGradient id="SVGID_4_" gradientUnits="userSpaceOnUse" x1="10890.1982" y1="-2386.2815" x2="10916.7051" y2="-2289.8423" gradientTransform="matrix(-0.8074 -0.59 0.59 -0.8074 10219.2607 4678.2495)">
					<stop offset="0" style="stop-color:#C13B2E"/>
					<stop offset="0.1351" style="stop-color:#BD392C"/>
					<stop offset="0.2752" style="stop-color:#B53729"/>
					<stop offset="0.4175" style="stop-color:#A83225"/>
					<stop offset="0.5615" style="stop-color:#962C1E"/>
					<stop offset="0.7068" style="stop-color:#7E2214"/>
					<stop offset="0.8531" style="stop-color:#621302"/>
					<stop offset="0.9977" style="stop-color:#410000"/>
					<stop offset="1" style="stop-color:#410000"/>
				</linearGradient>
				<polygon class="st3" points="11.33,164.91 34.95,182.17 63.26,96.39 39.53,79.12     "/>
			</g>
			<g>
				
					<linearGradient id="SVGID_5_" gradientUnits="userSpaceOnUse" x1="4623.2441" y1="-5120.9424" x2="4649.75" y2="-5024.5088" gradientTransform="matrix(0.3087 -0.9512 0.9512 0.3087 3451.3535 6058.4868)">
					<stop offset="0" style="stop-color:#007795"/>
					<stop offset="1" style="stop-color:#000016"/>
				</linearGradient>
				<polygon class="st4" points="19.31,68.48 10.27,96.31 100.61,96.44 109.61,68.51     "/>
				
					<linearGradient id="SVGID_6_" gradientUnits="userSpaceOnUse" x1="4661.1206" y1="-5120.9399" x2="4687.626" y2="-5024.5078" gradientTransform="matrix(0.3087 -0.9512 0.9512 0.3087 3451.3535 6058.4868)">
					<stop offset="0" style="stop-color:#C13B2E"/>
					<stop offset="0.1351" style="stop-color:#BD392C"/>
					<stop offset="0.2752" style="stop-color:#B53729"/>
					<stop offset="0.4175" style="stop-color:#A83225"/>
					<stop offset="0.5615" style="stop-color:#962C1E"/>
					<stop offset="0.7068" style="stop-color:#7E2214"/>
					<stop offset="0.8531" style="stop-color:#621302"/>
					<stop offset="0.9977" style="stop-color:#410000"/>
					<stop offset="1" style="stop-color:#410000"/>
				</linearGradient>
				<polygon class="st5" points="31,32.45 21.97,60.28 112.3,60.42 121.3,32.49     "/>
			</g>
			<g>
				<linearGradient id="SVGID_7_" gradientUnits="userSpaceOnUse" x1="110.7927" y1="2.6156" x2="137.3002" y2="99.0558">
					<stop offset="0" style="stop-color:#007795"/>
					<stop offset="1" style="stop-color:#000016"/>
				</linearGradient>
				<polygon class="st6" points="125.42,10.27 96.15,10.27 123.91,96.24 153.25,96.18     "/>
				<polygon class="st7" points="163.31,10.27 134.04,10.27 161.8,96.24 191.14,96.18     "/>
			</g>
			
				<linearGradient id="SVGID_8_" gradientUnits="userSpaceOnUse" x1="10117.4678" y1="4453.4614" x2="10143.9746" y2="4549.8989" gradientTransform="matrix(-0.8085 0.5885 -0.5885 -0.8085 10979.4229 -2154.0405)">
				<stop offset="0" style="stop-color:#007795"/>
				<stop offset="1" style="stop-color:#000016"/>
			</linearGradient>
			<polygon class="st8" points="162.26,201.88 185.91,184.66 112.89,131.49 89.2,148.8    "/>
			
				<linearGradient id="SVGID_9_" gradientUnits="userSpaceOnUse" x1="3359.6326" y1="5891.7637" x2="3386.1377" y2="5988.1943" gradientTransform="matrix(0.3114 0.9503 -0.9503 0.3114 4768.5781 -4950.3213)">
				<stop offset="0" style="stop-color:#007795"/>
				<stop offset="1" style="stop-color:#000016"/>
			</linearGradient>
			<polygon class="st9" points="213.1,93.32 203.99,65.51 130.95,118.65 140.14,146.51    "/>
		</g>
	</g>
</g>
<g id="Layer_4">
	<g>
		<g>
			<path class="st10" d="M264.78,39.08h39.6v12.92h-26.26v51.12h22.22v13.13h-22.22v64.24h-13.33V39.08z"/>
			<path class="st10" d="M313.26,39.08h39.6v12.92H326.6v51.12h22.22v13.13H326.6v51.11h26.27v13.13h-39.6V39.08z"/>
			<path class="st10" d="M361.74,39.08h22.83c13.14,0,22.83,9.49,22.83,22.62v95.96c0,13.13-9.69,22.82-22.83,22.82h-22.83V39.08z      M384.57,167.36c5.46,0,9.5-4.04,9.5-9.69V61.71c0-5.65-4.04-9.7-9.5-9.7h-9.49v115.36H384.57z"/>
			<path class="st10" d="M419.52,39.08h39.6v12.92h-26.27v51.12h22.22v13.13h-22.22v51.11h26.27v13.13h-39.6V39.08z"/>
			<path class="st10" d="M468.01,39.08h22.83c13.13,0,22.83,9.49,22.83,22.62v32.12c0,8.28-3.84,15.15-10.1,19.2     c6.26,3.64,10.1,10.5,10.1,18.79v48.68h-13.33v-51.31c0-5.66-4.04-9.7-9.5-9.7h-9.49v61.01h-13.34V39.08z M490.84,106.35     c5.45,0,9.5-4.04,9.5-9.69V61.71c0-5.65-4.04-9.7-9.5-9.7h-9.49v54.34H490.84z"/>
			<path class="st10" d="M541.95,39.08h13.34l21.01,141.41h-13.13l-4.04-28.28h-21.01l-4.04,28.28h-13.13L541.95,39.08z      M557.71,139.08l-9.09-64.04l-9.09,64.04H557.71z"/>
			<path class="st10" d="M583.57,39.08h13.33v128.28h24.25v13.13h-37.58V39.08z"/>
			<path class="st11" d="M653.12,39.08h12.53l23.03,98.38V39.08h12.12v141.41h-12.52l-23.03-98.38v98.38h-12.12V39.08z"/>
			<path class="st11" d="M712.91,39.08h39.59v12.92h-26.26v51.12h22.23v13.13h-22.23v51.11h26.26v13.13h-39.59V39.08z"/>
			<path class="st11" d="M794.33,39.08l3.43,31.1l3.84-31.1h12.32l-9.9,55.15l7.68,50.1l14.54-105.25h13.13l-21.01,141.41h-12.13     l-8.48-56.97l-8.08,56.97h-12.13L756.55,39.08h13.13l14.55,105.25l7.27-49.5l-9.49-55.75H794.33z"/>
			<path class="st11" d="M857.77,134.84v24.85c0,5.66,4.04,9.7,9.49,9.7c5.45,0,9.5-4.04,9.5-9.7v-19.6     c0-19.99-32.33-32.73-32.33-61.01V59.69c0-13.13,9.7-22.62,22.83-22.62s22.83,9.49,22.83,22.62v24.65h-13.33V59.69     c0-5.65-4.05-9.69-9.5-9.69c-5.45,0-9.49,4.04-9.49,9.69v19.39c0,20,32.32,32.93,32.32,61.01v19.6c0,13.13-9.7,22.83-22.83,22.83     s-22.83-9.7-22.83-22.83v-24.85H857.77z"/>
		</g>
		<g>
			<path class="st12" d="M925.29,39.08h12.53l23.03,98.39V39.08h12.12V180.5h-12.53l-23.03-98.39v98.39h-12.12V39.08z"/>
			<path class="st12" d="M985.09,39.08h39.6v12.93h-26.26v51.11h22.22v13.13h-22.22v51.11h26.26v13.13h-39.6V39.08z"/>
			<path class="st12" d="M1047.71,52.01h-18.59V39.08h50.51v12.93h-18.59V180.5h-13.33V52.01z"/>
			<path class="st12" d="M1120.23,39.08l3.43,31.11l3.84-31.11h12.32l-9.9,55.15l7.68,50.1l14.55-105.26h13.13l-21.01,141.42h-12.12     l-8.49-56.97l-8.08,56.97h-12.12l-21.01-141.42h13.13l14.55,105.26l7.27-49.5l-9.5-55.76H1120.23z"/>
			<path class="st12" d="M1170.33,59.69c0-13.13,9.7-22.63,22.83-22.63c13.13,0,22.83,9.5,22.83,22.63v100     c0,13.13-9.7,22.83-22.83,22.83c-13.13,0-22.83-9.7-22.83-22.83V59.69z M1193.16,169.39c5.45,0,9.5-4.04,9.5-9.7v-100     c0-5.66-4.04-9.7-9.5-9.7c-5.45,0-9.5,4.04-9.5,9.7v100C1183.67,165.35,1187.71,169.39,1193.16,169.39z"/>
			<path class="st12" d="M1228.11,39.08h22.83c13.13,0,22.83,9.5,22.83,22.63v32.12c0,8.28-3.84,15.15-10.1,19.19     c6.26,3.64,10.1,10.51,10.1,18.79v48.69h-13.33v-51.31c0-5.66-4.04-9.7-9.5-9.7h-9.5v61.01h-13.33V39.08z M1250.94,106.36     c5.45,0,9.5-4.04,9.5-9.7V61.71c0-5.66-4.04-9.7-9.5-9.7h-9.5v54.35H1250.94z"/>
			<path class="st12" d="M1285.89,39.08h13.33v66.67l22.83-66.67h13.13l-23.64,69.5l24.04,71.92h-13.54l-22.83-66.67v66.67h-13.33     V39.08z"/>
		</g>
	</g>
</g>
</svg>
